<?xml version="1.0" encoding="utf-8"?>
<!-- Generator: Adobe Illustrator 26.3.1, SVG Export Plug-In . SVG Version: 6.00 Build 0)  -->
<svg version="1.1" id="Camada_1" xmlns="http://www.w3.org/2000/svg" xmlns:xlink="http://www.w3.org/1999/xlink" x="0px" y="0px"
	 viewBox="0 0 763.77 433.98" style="enable-background:new 0 0 763.77 433.98;" xml:space="preserve">
<style type="text/css">
	.st0{fill:url(#SVGID_1_);}
	.st1{fill:#A6368A;}
</style>
<linearGradient id="SVGID_1_" gradientUnits="userSpaceOnUse" x1="-1124.6967" y1="1779.9974" x2="-591.2666" y2="1779.9974" gradientTransform="matrix(0 1 -1 0 -184.9825 3041.3267)">
	<stop  offset="0" style="stop-color:#000000;stop-opacity:0"/>
	<stop  offset="1" style="stop-color:#000000"/>
</linearGradient>
<polygon class="st0" points="-1424.98,2450.06 -1424.98,1916.63 -2504.98,1916.63 -2504.98,2450.06 "/>
<g>
	<g>
		<g>
			<g>
				<g>
					<g>
						<path class="st1" d="M746.14,238.24L665.86,99.18c-8.67-7.43-19.57-11.85-31.44-11.85s-22.77,4.43-31.43,11.85l-79.82,138.23
							c-2.37,9.24-2.15,19.02,1.26,28.4c3.53,9.68,9.26,18.66,18.06,23.11c1.14,0.57,4.41,1.9,5.05,0.8
							c30.91-53.82,86.87-150.94,86.87-150.94l60.6,104.92H593.87l-27.39,47.42h159.63c7.38-4.8,13.45-11.49,17.36-19.85
							C748.4,260.67,749.06,249.09,746.14,238.24"/>
						<path class="st1" d="M170.77,206.89c0,18.66-14.08,34.2-32.12,36.57v49.55c45.41-2.5,81.45-40.09,81.45-86.12V92.49h-49.33
							V206.89L170.77,206.89z"/>
						<path class="st1" d="M87.81,206.89V92.49H38.47V206.9c0,46.81,37.32,84.92,83.82,86.21v-49.4
							C103.13,242.42,87.81,226.38,87.81,206.89"/>
						<polygon class="st1" points="392.16,22.79 343.18,22.79 343.18,90.89 315.09,90.89 315.09,133.38 343.18,133.38 
							343.18,291.14 392.16,291.14 392.16,133.38 422.32,133.38 422.32,90.89 392.16,90.89 						"/>
						<rect x="249.48" y="22.79" class="st1" width="48.97" height="268.35"/>
						<path class="st1" d="M545.41,89.49c0,0-0.31-0.02-0.92-0.02c-7.03,0-52.77,1.62-85.31,42.69
							c-21.78,27.49-28.02,57.28-28.6,75.55c-0.64,20.9,0,83.65,0,83.65h48.99c0,0-0.25-62.73,0-83.65
							c0.11-9.3,3.33-26.1,14.12-41.58c9.25-13.3,23.61-27.53,51.72-28.6V89.49z"/>
					</g>
				</g>
			</g>
		</g>
	</g>
	<g>
		<path class="st1" d="M106.45,414.02h-7.86l28.81-66.21h6.55l28.81,66.21h-7.86l-7.29-17.4h-33.85L106.45,414.02z M116.27,390.46
			h28.71l-14.31-34.79L116.27,390.46z"/>
		<path class="st1" d="M240.28,403.55c-4.4,6.83-13.56,12.16-24.5,12.16c-19.73,0-34.51-14.68-34.51-34.79s14.78-34.79,34.51-34.79
			c8.23,0,17.12,3.09,22.91,10.47l-5.89,4.4c-2.62-4.3-10.01-8.7-17.02-8.7c-17.02,0-27.22,13.37-27.22,28.62
			c0,15.24,10.19,28.62,27.22,28.62c6.92,0,14.03-2.24,18.98-9.91L240.28,403.55z"/>
		<path class="st1" d="M264.5,414.02h-7.86l28.81-66.21H292l28.81,66.21h-7.86l-7.29-17.4h-33.85L264.5,414.02z M274.32,390.46
			h28.71l-14.31-34.79L274.32,390.46z"/>
		<path class="st1" d="M342.87,347.81h21.98c16.55,0,34.79,11.04,34.79,33.11s-18.24,33.11-34.79,33.11h-21.98V347.81z
			 M349.6,407.85h13.09c20.2,0,29.65-13.28,29.65-26.93s-9.45-26.93-29.65-26.93H349.6V407.85L349.6,407.85z"/>
		<path class="st1" d="M433.86,407.85h35.45v6.17h-42.18v-66.21h41.05v6.17h-34.32v22.54h32.08v6.17h-32.08V407.85z"/>
		<path class="st1" d="M529.25,401.68l22.35-53.87h10.29v66.21h-6.73v-57.24h-0.19l-23.94,57.24h-3.55l-23.94-57.24h-0.19v57.24
			h-6.73v-66.21h10.29L529.25,401.68z"/>
		<path class="st1" d="M600.61,414.02h-6.73v-66.21h6.73V414.02z"/>
		<path class="st1" d="M631.47,414.02h-7.86l28.81-66.21h6.55l28.81,66.21h-7.86l-7.29-17.4h-33.85L631.47,414.02z M641.29,390.46
			H670l-14.31-34.79L641.29,390.46z"/>
	</g>
</g>
</svg>
